# ProBuilder 4.0.5
# https://unity3d.com/unity/features/worldbuilding/probuilder
# 3/16/2021 4:58:10 PM

mtllib ./Stairs.mtl
o Stairs

g Stairs
v -93 -14 37
v -85.22147 -14 37
v -93 -13.74753 37
v -85.22147 -13.74753 37
v -93 -13.74753 37.52632
v -85.22147 -13.74753 37.52632
v -93 -13.49507 37.52632
v -85.22147 -13.49507 37.52632
v -93 -13.49507 38.05263
v -85.22147 -13.49507 38.05263
v -93 -13.2426 38.05263
v -85.22147 -13.2426 38.05263
v -93 -13.2426 38.57895
v -85.22147 -13.2426 38.57895
v -93 -12.99013 38.57895
v -85.22147 -12.99013 38.57895
v -93 -12.99013 39.10526
v -85.22147 -12.99013 39.10526
v -93 -12.73766 39.10526
v -85.22147 -12.73766 39.10526
v -93 -12.73766 39.63158
v -85.22147 -12.73766 39.63158
v -93 -12.4852 39.63158
v -85.22147 -12.4852 39.63158
v -93 -12.4852 40.15789
v -85.22147 -12.4852 40.15789
v -93 -12.23273 40.15789
v -85.22147 -12.23273 40.15789
v -93 -12.23273 40.68421
v -85.22147 -12.23273 40.68421
v -93 -11.98026 40.68421
v -85.22147 -11.98026 40.68421
v -93 -11.98026 41.21053
v -85.22147 -11.98026 41.21053
v -93 -11.7278 41.21053
v -85.22147 -11.7278 41.21053
v -93 -11.7278 41.73684
v -85.22147 -11.7278 41.73684
v -93 -11.47533 41.73684
v -85.22147 -11.47533 41.73684
v -93 -11.47533 42.26316
v -85.22147 -11.47533 42.26316
v -93 -11.22286 42.26316
v -85.22147 -11.22286 42.26316
v -93 -11.22286 42.78947
v -85.22147 -11.22286 42.78947
v -93 -10.97039 42.78947
v -85.22147 -10.97039 42.78947
v -93 -10.97039 43.31579
v -85.22147 -10.97039 43.31579
v -93 -10.71793 43.31579
v -85.22147 -10.71793 43.31579
v -93 -10.71793 43.84211
v -85.22147 -10.71793 43.84211
v -93 -10.46546 43.84211
v -85.22147 -10.46546 43.84211
v -93 -10.46546 44.36842
v -85.22147 -10.46546 44.36842
v -93 -10.21299 44.36842
v -85.22147 -10.21299 44.36842
v -93 -10.21299 44.89474
v -85.22147 -10.21299 44.89474
v -93 -9.960526 44.89474
v -85.22147 -9.960526 44.89474
v -93 -9.960526 45.42105
v -85.22147 -9.960526 45.42105
v -93 -9.708059 45.42105
v -85.22147 -9.708059 45.42105
v -93 -9.708059 45.94737
v -85.22147 -9.708059 45.94737
v -93 -9.455591 45.94737
v -85.22147 -9.455591 45.94737
v -93 -9.455591 46.47369
v -85.22147 -9.455591 46.47369
v -93 -9.203125 46.47369
v -85.22147 -9.203125 46.47369
v -93 -9.203125 47
v -85.22147 -9.203125 47
v -85.22147 -14 37.52632
v -85.22147 -14 38.05263
v -85.22147 -14 38.57895
v -85.22147 -14 39.10526
v -85.22147 -14 39.63158
v -85.22147 -14 40.15789
v -85.22147 -14 40.68421
v -85.22147 -14 41.21053
v -85.22147 -14 41.73684
v -85.22147 -14 42.26316
v -85.22147 -14 42.78947
v -85.22147 -14 43.31579
v -85.22147 -14 43.84211
v -85.22147 -14 44.36842
v -85.22147 -14 44.89474
v -85.22147 -14 45.42105
v -85.22147 -14 45.94737
v -85.22147 -14 46.47369
v -85.22147 -14 47
v -93 -14 37.52632
v -93 -14 38.05263
v -93 -14 38.57895
v -93 -14 39.10526
v -93 -14 39.63158
v -93 -14 40.15789
v -93 -14 40.68421
v -93 -14 41.21053
v -93 -14 41.73684
v -93 -14 42.26316
v -93 -14 42.78947
v -93 -14 43.31579
v -93 -14 43.84211
v -93 -14 44.36842
v -93 -14 44.89474
v -93 -14 45.42105
v -93 -14 45.94737
v -93 -14 46.47369
v -93 -14 47

vt 0 0
vt -7.77853 0
vt 0 0.2524671
vt -7.77853 0.2524671
vt 0 0.5263158
vt -7.77853 0.5263158
vt 0 0.5049343
vt -7.77853 0.5049343
vt 0 1.052632
vt -7.77853 1.052632
vt 0 0.7574013
vt -7.77853 0.7574013
vt 0 1.578947
vt -7.77853 1.578947
vt 0 1.009869
vt -7.77853 1.009869
vt 0 2.105263
vt -7.77853 2.105263
vt 0 1.262336
vt -7.77853 1.262336
vt 0 2.631579
vt -7.77853 2.631579
vt 0 1.514803
vt -7.77853 1.514803
vt 0 3.157895
vt -7.77853 3.157895
vt 0 1.76727
vt -7.77853 1.76727
vt 0 3.684211
vt -7.77853 3.684211
vt 0 2.019737
vt -7.77853 2.019737
vt 0 4.210526
vt -7.77853 4.210526
vt 0 2.272204
vt -7.77853 2.272204
vt 0 4.736842
vt -7.77853 4.736842
vt 0 2.524671
vt -7.77853 2.524671
vt 0 5.263158
vt -7.77853 5.263158
vt 0 2.777138
vt -7.77853 2.777138
vt 0 5.789474
vt -7.77853 5.789474
vt 0 3.029605
vt -7.77853 3.029605
vt 0 6.315789
vt -7.77853 6.315789
vt 0 3.282073
vt -7.77853 3.282073
vt 0 6.842105
vt -7.77853 6.842105
vt 0 3.53454
vt -7.77853 3.53454
vt 0 7.368421
vt -7.77853 7.368421
vt 0 3.787007
vt -7.77853 3.787007
vt 0 7.894737
vt -7.77853 7.894737
vt 0 4.039474
vt -7.77853 4.039474
vt 0 8.421053
vt -7.77853 8.421053
vt 0 4.291941
vt -7.77853 4.291941
vt 0 8.947369
vt -7.77853 8.947369
vt 0 4.544408
vt -7.77853 4.544408
vt 0 9.473684
vt -7.77853 9.473684
vt 0 4.796875
vt -7.77853 4.796875
vt 0 10
vt -7.77853 10
vt -0.5263158 0
vt -0.5263158 0.2524671
vt -1.052632 0
vt -1.052632 0.5049343
vt -0.5263158 0.5049343
vt -1.578947 0
vt -1.578947 0.7574014
vt -1.052632 0.7574014
vt -2.105263 0
vt -2.105263 1.009869
vt -1.578947 1.009869
vt -2.631579 0
vt -2.631579 1.262336
vt -2.105263 1.262336
vt -3.157895 0
vt -3.157895 1.514803
vt -2.631579 1.514803
vt -3.684211 0
vt -3.684211 1.76727
vt -3.157895 1.76727
vt -4.210526 0
vt -4.210526 2.019737
vt -3.684211 2.019737
vt -4.736842 0
vt -4.736842 2.272204
vt -4.210526 2.272204
vt -5.263158 0
vt -5.263158 2.524671
vt -4.736842 2.524671
vt -5.789474 0
vt -5.789474 2.777138
vt -5.263158 2.777138
vt -6.31579 0
vt -6.31579 3.029606
vt -5.789474 3.029606
vt -6.842105 0
vt -6.842105 3.282073
vt -6.31579 3.282073
vt -7.368421 0
vt -7.368421 3.53454
vt -6.842105 3.53454
vt -7.894737 0
vt -7.894737 3.787007
vt -7.368421 3.787007
vt -8.421053 0
vt -8.421053 4.039474
vt -7.894737 4.039474
vt -8.947369 0
vt -8.947369 4.291941
vt -8.421053 4.291941
vt -9.473684 0
vt -9.473684 4.544408
vt -8.947369 4.544408
vt -10 0
vt -10 4.796875
vt -9.473684 4.796875
vt 0.5263158 0
vt 0.5263158 0.2524671
vt 1.052632 0
vt 1.052632 0.5049343
vt 0.5263158 0.5049343
vt 1.578947 0
vt 1.578947 0.7574014
vt 1.052632 0.7574014
vt 2.105263 0
vt 2.105263 1.009869
vt 1.578947 1.009869
vt 2.631579 0
vt 2.631579 1.262336
vt 2.105263 1.262336
vt 3.157895 0
vt 3.157895 1.514803
vt 2.631579 1.514803
vt 3.684211 0
vt 3.684211 1.76727
vt 3.157895 1.76727
vt 4.210526 0
vt 4.210526 2.019737
vt 3.684211 2.019737
vt 4.736842 0
vt 4.736842 2.272204
vt 4.210526 2.272204
vt 5.263158 0
vt 5.263158 2.524671
vt 4.736842 2.524671
vt 5.789474 0
vt 5.789474 2.777138
vt 5.263158 2.777138
vt 6.31579 0
vt 6.31579 3.029606
vt 5.789474 3.029606
vt 6.842105 0
vt 6.842105 3.282073
vt 6.31579 3.282073
vt 7.368421 0
vt 7.368421 3.53454
vt 6.842105 3.53454
vt 7.894737 0
vt 7.894737 3.787007
vt 7.368421 3.787007
vt 8.421053 0
vt 8.421053 4.039474
vt 7.894737 4.039474
vt 8.947369 0
vt 8.947369 4.291941
vt 8.421053 4.291941
vt 9.473684 0
vt 9.473684 4.544408
vt 8.947369 4.544408
vt 10 0
vt 10 4.796875
vt 9.473684 4.796875
vt 7.77853 0
vt 7.77853 4.796875

vn 0 0 -1
vn 0 1 0
vn 1 0 0
vn -1 0 0
vn 0 0 1

g Stairs
usemtl ProBuilderDefault
f 6/80/3 8/83/3 10/82/3
f 10/82/3 12/86/3 14/85/3
f 14/85/3 16/89/3 18/88/3
f 18/88/3 20/92/3 22/91/3
f 22/91/3 24/95/3 26/94/3
f 26/94/3 28/98/3 30/97/3
f 30/97/3 32/101/3 34/100/3
f 34/100/3 36/104/3 38/103/3
f 38/103/3 40/107/3 42/106/3
f 42/106/3 44/110/3 46/109/3
f 46/109/3 48/113/3 50/112/3
f 50/112/3 52/116/3 54/115/3
f 54/115/3 56/119/3 58/118/3
f 58/118/3 60/122/3 62/121/3
f 62/121/3 64/125/3 66/124/3
f 66/124/3 68/128/3 70/127/3
f 70/127/3 72/131/3 74/130/3
f 74/130/3 76/134/3 78/133/3
f 9/138/4 7/139/4 5/136/4
f 13/141/4 11/142/4 9/138/4
f 17/144/4 15/145/4 13/141/4
f 21/147/4 19/148/4 17/144/4
f 25/150/4 23/151/4 21/147/4
f 29/153/4 27/154/4 25/150/4
f 33/156/4 31/157/4 29/153/4
f 37/159/4 35/160/4 33/156/4
f 41/162/4 39/163/4 37/159/4
f 45/165/4 43/166/4 41/162/4
f 49/168/4 47/169/4 45/165/4
f 53/171/4 51/172/4 49/168/4
f 57/174/4 55/175/4 53/171/4
f 61/177/4 59/178/4 57/174/4
f 65/180/4 63/181/4 61/177/4
f 69/183/4 67/184/4 65/180/4
f 73/186/4 71/187/4 69/183/4
f 77/189/4 75/190/4 73/186/4
f 4/4/1 2/2/1 1/1/1
f 1/1/1 3/3/1 4/4/1
f 6/6/2 4/2/2 3/1/2
f 3/1/2 5/5/2 6/6/2
f 8/8/1 6/4/1 5/3/1
f 5/3/1 7/7/1 8/8/1
f 10/10/2 8/6/2 7/5/2
f 7/5/2 9/9/2 10/10/2
f 12/12/1 10/8/1 9/7/1
f 9/7/1 11/11/1 12/12/1
f 14/14/2 12/10/2 11/9/2
f 11/9/2 13/13/2 14/14/2
f 16/16/1 14/12/1 13/11/1
f 13/11/1 15/15/1 16/16/1
f 18/18/2 16/14/2 15/13/2
f 15/13/2 17/17/2 18/18/2
f 20/20/1 18/16/1 17/15/1
f 17/15/1 19/19/1 20/20/1
f 22/22/2 20/18/2 19/17/2
f 19/17/2 21/21/2 22/22/2
f 24/24/1 22/20/1 21/19/1
f 21/19/1 23/23/1 24/24/1
f 26/26/2 24/22/2 23/21/2
f 23/21/2 25/25/2 26/26/2
f 28/28/1 26/24/1 25/23/1
f 25/23/1 27/27/1 28/28/1
f 30/30/2 28/26/2 27/25/2
f 27/25/2 29/29/2 30/30/2
f 32/32/1 30/28/1 29/27/1
f 29/27/1 31/31/1 32/32/1
f 34/34/2 32/30/2 31/29/2
f 31/29/2 33/33/2 34/34/2
f 36/36/1 34/32/1 33/31/1
f 33/31/1 35/35/1 36/36/1
f 38/38/2 36/34/2 35/33/2
f 35/33/2 37/37/2 38/38/2
f 40/40/1 38/36/1 37/35/1
f 37/35/1 39/39/1 40/40/1
f 42/42/2 40/38/2 39/37/2
f 39/37/2 41/41/2 42/42/2
f 44/44/1 42/40/1 41/39/1
f 41/39/1 43/43/1 44/44/1
f 46/46/2 44/42/2 43/41/2
f 43/41/2 45/45/2 46/46/2
f 48/48/1 46/44/1 45/43/1
f 45/43/1 47/47/1 48/48/1
f 50/50/2 48/46/2 47/45/2
f 47/45/2 49/49/2 50/50/2
f 52/52/1 50/48/1 49/47/1
f 49/47/1 51/51/1 52/52/1
f 54/54/2 52/50/2 51/49/2
f 51/49/2 53/53/2 54/54/2
f 56/56/1 54/52/1 53/51/1
f 53/51/1 55/55/1 56/56/1
f 58/58/2 56/54/2 55/53/2
f 55/53/2 57/57/2 58/58/2
f 60/60/1 58/56/1 57/55/1
f 57/55/1 59/59/1 60/60/1
f 62/62/2 60/58/2 59/57/2
f 59/57/2 61/61/2 62/62/2
f 64/64/1 62/60/1 61/59/1
f 61/59/1 63/63/1 64/64/1
f 66/66/2 64/62/2 63/61/2
f 63/61/2 65/65/2 66/66/2
f 68/68/1 66/64/1 65/63/1
f 65/63/1 67/67/1 68/68/1
f 70/70/2 68/66/2 67/65/2
f 67/65/2 69/69/2 70/70/2
f 72/72/1 70/68/1 69/67/1
f 69/67/1 71/71/1 72/72/1
f 74/74/2 72/70/2 71/69/2
f 71/69/2 73/73/2 74/74/2
f 76/76/1 74/72/1 73/71/1
f 73/71/1 75/75/1 76/76/1
f 78/78/2 76/74/2 75/73/2
f 75/73/2 77/77/2 78/78/2
f 6/80/3 79/79/3 2/1/3
f 2/1/3 4/3/3 6/80/3
f 10/82/3 80/81/3 79/79/3
f 79/79/3 6/80/3 10/82/3
f 14/85/3 81/84/3 80/81/3
f 80/81/3 10/82/3 14/85/3
f 18/88/3 82/87/3 81/84/3
f 81/84/3 14/85/3 18/88/3
f 22/91/3 83/90/3 82/87/3
f 82/87/3 18/88/3 22/91/3
f 26/94/3 84/93/3 83/90/3
f 83/90/3 22/91/3 26/94/3
f 30/97/3 85/96/3 84/93/3
f 84/93/3 26/94/3 30/97/3
f 34/100/3 86/99/3 85/96/3
f 85/96/3 30/97/3 34/100/3
f 38/103/3 87/102/3 86/99/3
f 86/99/3 34/100/3 38/103/3
f 42/106/3 88/105/3 87/102/3
f 87/102/3 38/103/3 42/106/3
f 46/109/3 89/108/3 88/105/3
f 88/105/3 42/106/3 46/109/3
f 50/112/3 90/111/3 89/108/3
f 89/108/3 46/109/3 50/112/3
f 54/115/3 91/114/3 90/111/3
f 90/111/3 50/112/3 54/115/3
f 58/118/3 92/117/3 91/114/3
f 91/114/3 54/115/3 58/118/3
f 62/121/3 93/120/3 92/117/3
f 92/117/3 58/118/3 62/121/3
f 66/124/3 94/123/3 93/120/3
f 93/120/3 62/121/3 66/124/3
f 70/127/3 95/126/3 94/123/3
f 94/123/3 66/124/3 70/127/3
f 74/130/3 96/129/3 95/126/3
f 95/126/3 70/127/3 74/130/3
f 78/133/3 97/132/3 96/129/3
f 96/129/3 74/130/3 78/133/3
f 3/3/4 1/1/4 98/135/4
f 98/135/4 5/136/4 3/3/4
f 5/136/4 98/135/4 99/137/4
f 99/137/4 9/138/4 5/136/4
f 9/138/4 99/137/4 100/140/4
f 100/140/4 13/141/4 9/138/4
f 13/141/4 100/140/4 101/143/4
f 101/143/4 17/144/4 13/141/4
f 17/144/4 101/143/4 102/146/4
f 102/146/4 21/147/4 17/144/4
f 21/147/4 102/146/4 103/149/4
f 103/149/4 25/150/4 21/147/4
f 25/150/4 103/149/4 104/152/4
f 104/152/4 29/153/4 25/150/4
f 29/153/4 104/152/4 105/155/4
f 105/155/4 33/156/4 29/153/4
f 33/156/4 105/155/4 106/158/4
f 106/158/4 37/159/4 33/156/4
f 37/159/4 106/158/4 107/161/4
f 107/161/4 41/162/4 37/159/4
f 41/162/4 107/161/4 108/164/4
f 108/164/4 45/165/4 41/162/4
f 45/165/4 108/164/4 109/167/4
f 109/167/4 49/168/4 45/165/4
f 49/168/4 109/167/4 110/170/4
f 110/170/4 53/171/4 49/168/4
f 53/171/4 110/170/4 111/173/4
f 111/173/4 57/174/4 53/171/4
f 57/174/4 111/173/4 112/176/4
f 112/176/4 61/177/4 57/174/4
f 61/177/4 112/176/4 113/179/4
f 113/179/4 65/180/4 61/177/4
f 65/180/4 113/179/4 114/182/4
f 114/182/4 69/183/4 65/180/4
f 69/183/4 114/182/4 115/185/4
f 115/185/4 73/186/4 69/183/4
f 73/186/4 115/185/4 116/188/4
f 116/188/4 77/189/4 73/186/4
f 77/75/5 116/1/5 97/191/5
f 97/191/5 78/192/5 77/75/5

